<?xml version="1.0" encoding="UTF-8"?>
<svg id="Layer_2" data-name="Layer 2" xmlns="http://www.w3.org/2000/svg" viewBox="0 0 413.26 96.8">
  <defs>
    <style>
      .cls-1 {
        font-family: Nunito-SemiBold, Nunito;
        font-size: 81.61px;
        font-weight: 600;
      }

      .cls-1, .cls-2 {
        fill: #efefef;
      }

      .cls-2 {
        stroke-width: 0px;
      }
    </style>
  </defs>
  <g id="Layer_1-2" data-name="Layer 1">
    <g>
      <g>
        <path class="cls-2" d="M56.54,65.17c-.5-3.31-2.25-6.23-4.95-8.22-2.17-1.61-4.74-2.45-7.44-2.45-3.97,0-7.74,1.9-10.09,5.09-.61.83-1.12,1.72-1.5,2.65-1.06,2.57-3.15,4.58-5.76,5.55-1.13.42-2.31.63-3.48.63-1.03,0-2.05-.17-3.03-.49-1.26-1.69-1.97-3.75-1.99-5.89-.02-2.78,1.11-5.45,3.14-7.36.07-.06.12-.13.19-.19.23-.23.45-.45.66-.69.23-.26.45-.54.66-.81.05-.07.09-.14.14-.21.19-.26.36-.53.53-.8.03-.05.06-.11.09-.16.17-.3.34-.61.48-.92.01-.03.02-.06.04-.08,1.37-2.98,1.53-6.4.38-9.52,0-.02-.01-.04-.02-.06-.13-.34-.27-.67-.42-1-.03-.06-.06-.13-.09-.19-.14-.29-.3-.57-.46-.85-.04-.07-.08-.14-.13-.21-.07-.11-.13-.23-.21-.35-.08-.12-.17-.22-.25-.33-.12-.17-.25-.34-.38-.5-.17-.21-.34-.43-.52-.63-.02-.02-.04-.05-.06-.07-.11-.12-.23-.22-.34-.34-.18-.18-.35-.37-.53-.53-1.99-1.87-3.14-4.47-3.16-7.21-.02-2.79,1.12-5.46,3.15-7.37,1.88-1.77,3.15-4.06,3.67-6.64.66-3.28,0-6.63-1.86-9.41C20.63,2.09,16.73,0,12.52,0c-2.47,0-4.87.73-6.94,2.1C-.17,5.93-1.73,13.73,2.1,19.49c.57.85,1.24,1.63,1.99,2.32,2.05,1.88,3.23,4.52,3.26,7.3.02,2.78-1.11,5.45-3.14,7.35,0,0-.01.01-.02.02-1.87,1.76-3.15,4.05-3.66,6.62-.37,1.87-.31,3.75.15,5.55,0,.03.02.07.02.1.08.31.18.61.28.91.04.12.08.24.13.36.08.21.17.42.26.63.09.21.19.41.29.61.06.13.13.25.2.38.14.26.3.52.46.77.02.04.04.07.07.11.02.03.05.06.07.1.24.35.5.69.78,1.03.04.05.08.1.13.15.08.09.15.19.23.28.23.25.48.48.73.71.02.02.03.04.05.06,2.05,1.88,3.23,4.52,3.25,7.3.02,2.71-1.07,5.31-3,7.21-.32.3-.62.62-.91.95-.06.07-.12.13-.18.2-.15.18-.29.37-.43.56-3.57,4.74-3.38,11.54.77,16.04,2.37,2.57,5.73,4.04,9.23,4.04,2.87,0,5.63-.99,7.85-2.78.12-.09.23-.19.35-.29.09-.08.2-.16.29-.24.02-.02.04-.04.06-.06.28-.26.55-.54.81-.83.02-.02.04-.05.06-.07.68-.77,1.28-1.62,1.76-2.55.17-.32.32-.65.46-.99,1.07-2.57,3.16-4.58,5.77-5.55,1.12-.42,2.3-.62,3.47-.62,1.55,0,3.1.36,4.52,1.08,1.74.88,3.63,1.33,5.62,1.33,3.97,0,7.74-1.9,10.09-5.09,1.99-2.69,2.81-6,2.31-9.31Z"/>
        <circle class="cls-2" cx="44.14" cy="39.71" r="10.87"/>
      </g>
      <text class="cls-1" transform="translate(59.24 74.35)"><tspan x="0" y="0">1Bitcoin1</tspan></text>
    </g>
  </g>
</svg>