<?xml version="1.0" encoding="UTF-8"?>
<svg id="Layer_2" data-name="Layer 2" xmlns="http://www.w3.org/2000/svg" viewBox="0 0 167.98 92.02">
  <defs>
    <style>
      .cls-1 {
        font-family: Nunito-SemiBold, Nunito;
        font-size: 81.61px;
        font-weight: 600;
      }

      .cls-1, .cls-2 {
        fill: #efefef;
      }

      .cls-2 {
        stroke-width: 0px;
      }
    </style>
  </defs>
  <g id="Layer_1-2" data-name="Layer 1">
    <g>
      <text class="cls-1" transform="translate(88.32 69.57)"><tspan x="0" y="0">Ai</tspan></text>
      <path class="cls-2" d="M69.03,47.16c-2.27-2.46-5.37-3.89-8.7-4.02-.17,0-.35,0-.52,0-.21,0-.41,0-.61.01-.15,0-.3,0-.45,0-2.62,0-5.14-1.03-7.01-2.87-1.98-1.95-3.06-4.63-2.98-7.41.17-6.12-4.07-11.43-10.08-12.63-.79-.16-1.59-.24-2.39-.24-.06,0-.11,0-.17,0-5.84,0-10.98,4.14-12.23,9.85-.22,1.01-.32,2.04-.29,3.06.07,2.78-1.01,5.46-3,7.4-1.87,1.83-4.39,2.86-7,2.86-.16,0-.31,0-.47-.01-.2,0-.4-.01-.6-.01C5.91,43.14.41,48.32.02,54.93c-.2,3.34.92,6.56,3.14,9.07,2.22,2.5,5.29,3.99,8.62,4.19.25.02.51.02.76.02,6.62,0,12.11-5.18,12.5-11.79.02-.37.03-.74.02-1.1-.08-2.78,1.01-5.46,2.99-7.41,1.87-1.84,4.39-2.86,7-2.86.15,0,.31,0,.47.01.2,0,.4.01.6.01h0s.07,0,.1,0c.19,0,.39,0,.58-.01.16,0,.32-.01.47-.01,2.61,0,5.13,1.02,7,2.86,1.99,1.95,3.07,4.64,3,7.42-.09,3.29,1.09,6.43,3.32,8.84,2.27,2.46,5.37,3.89,8.7,4.02.17,0,.35,0,.52,0,6.75,0,12.25-5.29,12.52-12.04.13-3.35-1.04-6.54-3.32-9Z"/>
      <circle class="cls-2" cx="67.63" cy="24.97" r="10.87"/>
    </g>
  </g>
</svg>