<?xml version="1.0" encoding="UTF-8"?>
<svg id="Layer_2" data-name="Layer 2" xmlns="http://www.w3.org/2000/svg" viewBox="0 0 622.84 179.3">
  <defs>
    <style>
      .cls-1 {
        font-family: Ubuntu-LightItalic, Ubuntu;
        font-size: 40.97px;
        font-weight: 300;
      }

      .cls-1, .cls-2 {
        fill: #4d4d4d;
        font-style: italic;
      }

      .cls-3 {
        letter-spacing: -.01em;
      }

      .cls-4 {
        letter-spacing: -.01em;
      }

      .cls-2 {
        font-family: Ubuntu-MediumItalic, Ubuntu;
        font-size: 162.3px;
        font-weight: 500;
      }

      .cls-5 {
        fill: #fff;
      }

      .cls-5, .cls-6 {
        stroke-width: 0px;
      }

      .cls-6 {
        fill: #f6921e;
      }
    </style>
  </defs>
  <g id="Layer_1-2" data-name="Layer 1">
    <g>
      <text class="cls-2" transform="translate(123.01 137.38)"><tspan x="0" y="0">bit</tspan><tspan class="cls-4" x="201.4" y="0">c</tspan><tspan x="274.11" y="0">oin</tspan></text>
      <text class="cls-1" transform="translate(475.28 171.31)"><tspan x="0" y="0">ho</tspan><tspan class="cls-3" x="43.88" y="0">l</tspan><tspan x="54.24" y="0">ding</tspan></text>
      <g>
        <circle class="cls-6" cx="64.8" cy="75.56" r="64.8"/>
        <g>
          <path id="Path_1" data-name="Path 1" class="cls-5" d="M70.16,87.91c-.41,1.33-1.03,2.59-1.83,3.73-.08.11-.15.23-.2.36.13.13.27.25.43.34.16.11.33.21.5.32,7.37,4.54,19.9,4.01,26.2-3.63.99-1.19,1.8-2.52,2.4-3.94.15-.35.28-.69.4-1.05-.25-.02-.5-.02-.75-.02-.7,0-1.41,0-2.11.01-1.67.01-3.4.03-5.1-.03-.93-.04-1.22.19-1.6.85-1.68,2.98-4.67,4.53-8.65,4.46-2.96-.05-5.35-.96-6.93-2.62-.57-.59-1.03-1.27-1.37-2.01-2.38-5.12-2.42-10.3-.13-15.42.35-.8.84-1.52,1.44-2.15,1.63-1.71,4.07-2.64,7.11-2.66h.11c3.93,0,6.83,1.58,8.62,4.69.15.27.28.56.39.85.08.23.18.45.29.66.04.05.09.1.15.13,2.54.03,5.13.02,7.64.02h1.13c-.07-.25-.14-.49-.23-.73-1.79-5.44-5.58-9.07-11.3-10.78-7.1-2.15-13.58-1.15-19.26,2.96-.06.04-.12.08-.18.12-.07.05-.14.11-.2.18.01,0,.03.08.11.24.21.42.41.85.57,1.29.11,1.05.1,2.11-.04,3.16-.34,2.37-1.24,4.62-2.63,6.57-.22.32-.41.64-.69,1.07.12.11.23.22.35.33.49.45.99.87,1.44,1.32.22.22.42.43.61.67,1.44,1.75,2.44,3.81,2.94,6.01.36,1.54.48,3.13.35,4.7"/>
          <path id="Path_2" data-name="Path 2" class="cls-5" d="M99.34,85.08c-.67,1.8-1.65,3.47-2.88,4.94-4,4.85-10.31,7.05-16.44,7.05-4.22,0-8.36-1.04-11.59-2.98-.2.41-.42.81-.66,1.21-.67,1.12-.43,1.59.49,2.31,3.42,2.64,8.03,4.16,12.79,4.25h0v4.34h5.24v-4.81c5.17-1.01,9.76-3.95,12.83-8.23,1.73-2.39,2.95-5.11,3.59-7.99-.67-.04-1.17-.09-1.68-.09-.56,0-1.12,0-1.69,0"/>
          <path id="Path_3" data-name="Path 3" class="cls-5" d="M102.86,69.59c-1.73-7.77-5.94-13.62-13.6-16.28-.98-.34-1.97-.63-2.98-.86v-4.7h-5.24v4.1c-5.05.03-9.81,1.85-14.18,5.57-.65.55-.71,1-.36,1.79.21.49.4.97.57,1.45,5.98-4.13,12.76-5.1,20.16-2.87,6.41,1.94,10.6,6.06,12.48,12.28,1.02,0,2.04,0,3.07,0,.06-.32.11-.41.09-.48"/>
          <path id="Path_4" data-name="Path 4" class="cls-5" d="M60.4,75.24c2.29,1.21,4.12,2.65,5.45,4.7,4.43,6.83.82,19-9.47,20.56-3.49.53-7.08.51-10.62.57-5.83.09-11.66.02-17.49.07-1.09,0-1.52-.2-1.52-1.43.04-15.18.05-30.35.02-45.53,0-.83-.07-1.53,1.17-1.51,8.24.12,16.48.12,24.72.3,4.13.09,7.65,1.69,10.24,5.07,3.78,4.85,3.26,11.78-1.2,16.02-.37.36-.76.7-1.3,1.2M45.01,91.29v-.1c1.8,0,3.59,0,5.39,0,.35,0,.7-.04,1.05-.08,3.02-.39,4.58-2.06,4.57-4.91,0-2.88-1.67-4.83-4.65-5-4.06-.23-8.14-.22-12.21-.35-.96-.03-1.05.5-1.05,1.24.02,2.63.05,5.26-.01,7.89-.03,1.08.41,1.35,1.39,1.33,1.84-.05,3.68-.01,5.52-.01M44.69,62.47v-.07c-1.8,0-3.59.02-5.39-.01-.8-.02-1.21.2-1.2,1.1.04,2.19.04,4.38,0,6.57,0,.79.29,1.11,1.08,1.09,1.36-.03,2.72.02,4.07,0,2.32-.04,4.65-.02,6.95-.21,2.63-.22,4.2-2.01,4.12-4.39-.08-2.49-1.64-3.96-4.4-4.05-1.75-.06-3.5-.01-5.25-.01"/>
          <rect id="Rectangle_2" data-name="Rectangle 2" class="cls-5" x="44.6" y="47.75" width="5.24" height="5.24"/>
          <rect id="Rectangle_3" data-name="Rectangle 3" class="cls-5" x="44.6" y="100.96" width="5.24" height="5.24"/>
        </g>
      </g>
    </g>
  </g>
</svg>