<?xml version="1.0" encoding="UTF-8"?>
<svg id="Layer_2" data-name="Layer 2" xmlns="http://www.w3.org/2000/svg" viewBox="0 0 535.1 98.79">
  <defs>
    <style>
      .cls-1 {
        font-family: Nunito-SemiBold, Nunito;
        font-size: 81.61px;
        font-weight: 600;
      }

      .cls-1, .cls-2 {
        fill: #efefef;
      }

      .cls-2 {
        stroke-width: 0px;
      }
    </style>
  </defs>
  <g id="Layer_1-2" data-name="Layer 1">
    <g>
      <text class="cls-1" transform="translate(58.58 76.34)"><tspan x="0" y="0">Bitcoin1USD</tspan></text>
      <g>
        <path class="cls-2" d="M48.69,57.57c0-.32,0-.63-.03-.94,0-.1-.02-.21-.03-.31-.02-.24-.05-.47-.09-.71-.03-.15-.06-.3-.09-.45-.04-.19-.08-.38-.13-.56-.05-.18-.11-.36-.17-.54-.05-.15-.09-.3-.15-.45-.08-.22-.18-.43-.27-.64-.05-.1-.09-.2-.14-.3-.13-.27-.28-.54-.44-.8-.02-.03-.03-.06-.05-.09-.04-.07-.08-.15-.13-.22-1.56-2.44-3.98-4.13-6.82-4.75-.77-.17-1.55-.25-2.34-.25-.35,0-.7.02-1.05.06-2.21-.04-4.34-.92-5.92-2.48-1.71-1.69-2.65-4.01-2.58-6.42,0-.04,0-.07,0-.11,0-.17.01-.33,0-.5-.07-2.41.87-4.73,2.59-6.42,1.62-1.59,3.8-2.48,6.06-2.48.13,0,.27,0,.4,0,.17,0,.35.01.52.01,5.05,0,9.51-3.59,10.59-8.53.62-2.83.1-5.74-1.46-8.18-1.56-2.44-3.98-4.13-6.82-4.75-.77-.17-1.55-.25-2.34-.25-5.05,0-9.51,3.59-10.59,8.53-.19.87-.27,1.75-.25,2.63.07,2.41-.87,4.73-2.59,6.42-1.62,1.59-3.8,2.48-6.07,2.48-.13,0-.27,0-.4,0-.18,0-.35-.01-.52-.01-.1,0-.2.01-.3.01-.24,0-.47.01-.71.03-.15.01-.29.04-.44.06-.18.02-.36.05-.54.08-.16.03-.32.07-.48.11-.16.04-.32.07-.47.12-.16.05-.32.1-.49.15-.15.05-.29.1-.43.15-.16.06-.32.13-.48.2-.14.06-.28.12-.41.19-.15.07-.3.15-.45.23-.14.08-.27.15-.4.23-.14.08-.28.17-.41.26-.14.09-.28.19-.41.29-.12.09-.24.17-.35.27-.15.12-.3.25-.44.38-.09.08-.18.16-.27.24-.19.18-.36.37-.54.56-.04.04-.08.08-.12.13-.65.74-1.21,1.58-1.64,2.49-.01.02-.02.05-.03.07-.13.28-.25.56-.36.85-.02.04-.03.09-.05.14-.1.27-.18.55-.26.83-.01.05-.03.11-.04.17-.04.17-.09.33-.12.5-.02.11-.03.21-.05.32-.01.08-.02.16-.04.24-.04.29-.07.58-.09.87,0,.02,0,.03,0,.05,0,.02,0,.05,0,.07-.02.33-.02.65-.01.98,0,.02,0,.05,0,.07.01.33.04.66.09.99,0,.03,0,.06.01.09.04.31.1.62.17.93.01.05.03.1.04.15.07.28.15.56.24.83.03.08.05.15.08.23.09.25.19.49.3.73.04.09.08.18.13.27.11.23.22.45.35.67.05.09.11.18.16.27.08.13.15.27.24.4.06.09.13.17.19.25.05.06.09.13.14.19.18.24.36.47.56.69.01.01.02.03.03.04.02.02.04.04.05.05.22.24.44.47.68.69.02.02.04.04.07.06.24.22.48.42.74.62.03.03.07.05.1.08.24.18.48.35.74.5.06.04.13.08.19.11.23.14.46.26.7.38.1.05.19.09.29.14.21.1.42.19.64.27.13.05.25.09.38.14.2.07.4.13.61.19.14.04.28.07.42.11.13.03.25.07.38.09.09.02.17.02.26.04.13.02.25.04.38.06.24.03.48.06.72.08.04,0,.08.01.12.01.13,0,.25,0,.38.01.09,0,.18.01.28.01.17,0,.34,0,.5-.01.14,0,.27-.01.41-.01,2.26,0,4.44.89,6.06,2.48,1.72,1.69,2.66,4.01,2.59,6.42,0,.01,0,.02,0,.04,0,.18-.02.36-.02.54.06,2.41-.88,4.73-2.6,6.41-1.62,1.59-3.8,2.47-6.06,2.47-.13,0-.27,0-.4,0-.17,0-.34-.01-.52-.01-5.73,0-10.49,4.49-10.83,10.21-.17,2.9.79,5.68,2.72,7.85,1.93,2.17,4.58,3.46,7.47,3.63.22.01.44.02.66.02,5.73,0,10.49-4.49,10.83-10.21.02-.32.02-.64.02-.95-.07-2.41.87-4.73,2.59-6.42,1.61-1.58,3.77-2.46,6.01-2.47.18.02.36.04.54.05.15,0,.3,0,.45,0,5.85,0,10.61-4.58,10.84-10.42,0-.09,0-.18,0-.26,0-.02,0-.04,0-.06Z"/>
        <circle class="cls-2" cx="10.88" cy="10.88" r="10.87"/>
        <circle class="cls-2" cx="42.66" cy="84.25" r="10.87"/>
      </g>
    </g>
  </g>
</svg>