<?xml version="1.0" encoding="UTF-8"?>
<svg id="Layer_2" data-name="Layer 2" xmlns="http://www.w3.org/2000/svg" viewBox="0 0 372.5 92.02">
  <defs>
    <style>
      .cls-1 {
        font-family: Nunito-SemiBold, Nunito;
        font-size: 81.61px;
        font-weight: 600;
      }

      .cls-1, .cls-2 {
        fill: #efefef;
      }

      .cls-2 {
        stroke-width: 0px;
      }
    </style>
  </defs>
  <g id="Layer_1-2" data-name="Layer 1">
    <g>
      <text class="cls-1" transform="translate(81.32 69.57)"><tspan x="0" y="0">Genesis</tspan></text>
      <g>
        <g>
          <path class="cls-2" d="M12.22,51.8C5.33,51.64-.16,45.88,0,38.97c.16-6.75,5.78-12.24,12.53-12.24,0,0,.23,0,.26,0,2.74,0,5.36-1.13,7.25-3.12,1.92-2.02,2.9-4.74,2.73-7.52-.06-1.01,0-2.03.18-3.04,1.09-5.96,6.27-10.29,12.32-10.29.75,0,1.52.07,2.27.21,3.29.6,6.14,2.45,8.05,5.21s2.63,6.09,2.03,9.37c-1.09,5.96-6.27,10.29-12.32,10.29,0,0-.24,0-.27,0-2.74,0-5.37,1.13-7.25,3.12-1.91,2.02-2.9,4.74-2.73,7.51.02.36.03.72.02,1.09-.16,6.73-5.76,12.21-12.48,12.24h-.37Z"/>
          <path class="cls-2" d="M12.22,51.8C5.33,51.64-.16,45.88,0,38.97c.16-6.75,5.78-12.24,12.53-12.24,0,0,.23,0,.26,0,2.74,0,5.36-1.13,7.25-3.12,1.92-2.02,2.9-4.74,2.73-7.52-.06-1.01,0-2.03.18-3.04,1.09-5.96,6.27-10.29,12.32-10.29.75,0,1.52.07,2.27.21,3.29.6,6.14,2.45,8.05,5.21s2.63,6.09,2.03,9.37c-1.09,5.96-6.27,10.29-12.32,10.29,0,0-.24,0-.27,0-2.74,0-5.37,1.13-7.25,3.12-1.91,2.02-2.9,4.74-2.73,7.51.02.36.03.72.02,1.09-.16,6.73-5.76,12.21-12.48,12.24h-.37Z"/>
        </g>
        <g>
          <path class="cls-2" d="M31.58,78.78c-.67,0-1.35-.05-2.02-.16-6.83-1.11-11.48-7.56-10.37-14.38.99-6.1,6.19-10.53,12.36-10.53.67,0,1.35.05,2.02.16,1.02.17,2,.45,2.93.85,1.26.54,2.6.81,3.94.81s2.77-.29,4.06-.86c2.54-1.13,4.5-3.27,5.4-5.9,1.73-5.07,6.5-8.47,11.85-8.47,1.33,0,2.65.21,3.92.63,3.18,1.05,5.76,3.27,7.27,6.26s1.76,6.39.72,9.57c-1.7,5.16-6.48,8.62-11.91,8.62-1.33,0-2.65-.21-3.92-.63-.35-.11-.7-.25-1.04-.39-1.25-.53-2.58-.8-3.92-.8s-2.78.29-4.08.87c-2.54,1.14-4.49,3.28-5.39,5.91-1.71,5.05-6.47,8.44-11.84,8.44Z"/>
          <path class="cls-2" d="M31.58,78.78c-.67,0-1.35-.05-2.02-.16-6.83-1.11-11.48-7.56-10.37-14.38.99-6.1,6.19-10.53,12.36-10.53.67,0,1.35.05,2.02.16,1.02.17,2,.45,2.93.85,1.26.54,2.6.81,3.94.81s2.77-.29,4.06-.86c2.54-1.13,4.5-3.27,5.4-5.9,1.73-5.07,6.5-8.47,11.85-8.47,1.33,0,2.65.21,3.92.63,3.18,1.05,5.76,3.27,7.27,6.26s1.76,6.39.72,9.57c-1.7,5.16-6.48,8.62-11.91,8.62-1.33,0-2.65-.21-3.92-.63-.35-.11-.7-.25-1.04-.39-1.25-.53-2.58-.8-3.92-.8s-2.78.29-4.08.87c-2.54,1.14-4.49,3.28-5.39,5.91-1.71,5.05-6.47,8.44-11.84,8.44Z"/>
        </g>
        <g>
          <path class="cls-2" d="M31.59,78.77c-.94,0-1.88-.11-2.79-.31-3.27-.74-6.05-2.71-7.83-5.55-1.75-2.78-2.34-6.09-1.65-9.3.58-2.72,0-5.56-1.59-7.84-1.6-2.28-4.07-3.79-6.83-4.17-1-.14-1.99-.4-2.95-.78-3.11-1.24-5.55-3.62-6.87-6.7-1.32-3.08-1.36-6.49-.12-9.59,1.92-4.79,6.49-7.88,11.64-7.88,1.59,0,3.16.3,4.65.9,5.69,2.28,8.89,8.28,7.6,14.26-.58,2.72,0,5.56,1.59,7.84,1.6,2.28,4.07,3.79,6.83,4.17.36.05.72.11,1.07.19,3.27.74,6.05,2.71,7.83,5.55,1.78,2.83,2.36,6.19,1.61,9.46-1.31,5.75-6.33,9.76-12.21,9.76Z"/>
          <path class="cls-2" d="M31.59,78.77c-.94,0-1.88-.11-2.79-.31-3.27-.74-6.05-2.71-7.83-5.55-1.75-2.78-2.34-6.09-1.65-9.3.58-2.72,0-5.56-1.59-7.84-1.6-2.28-4.07-3.79-6.83-4.17-1-.14-1.99-.4-2.95-.78-3.11-1.24-5.55-3.62-6.87-6.7-1.32-3.08-1.36-6.49-.12-9.59,1.92-4.79,6.49-7.88,11.64-7.88,1.59,0,3.16.3,4.65.9,5.69,2.28,8.89,8.28,7.6,14.26-.58,2.72,0,5.56,1.59,7.84,1.6,2.28,4.07,3.79,6.83,4.17.36.05.72.11,1.07.19,3.27.74,6.05,2.71,7.83,5.55,1.78,2.83,2.36,6.19,1.61,9.46-1.31,5.75-6.33,9.76-12.21,9.76Z"/>
        </g>
        <circle class="cls-2" cx="63.43" cy="77.55" r="10.87"/>
      </g>
    </g>
  </g>
</svg>