<?xml version="1.0" encoding="UTF-8"?>
<svg id="Layer_2" data-name="Layer 2" xmlns="http://www.w3.org/2000/svg" viewBox="0 0 426.85 92.02">
  <defs>
    <style>
      .cls-1 {
        font-family: Nunito-SemiBold, Nunito;
        font-size: 81.61px;
        font-weight: 600;
      }

      .cls-1, .cls-2 {
        fill: #efefef;
      }

      .cls-2 {
        stroke-width: 0px;
      }
    </style>
  </defs>
  <g id="Layer_1-2" data-name="Layer 1">
    <g>
      <path class="cls-2" d="M73.82,25.95c-1.09-5.96-6.27-10.29-12.32-10.29-.75,0-1.51.07-2.26.21-1.02.19-2,.49-2.94.91-1.3.58-2.7.88-4.09.88-1.32,0-2.65-.26-3.89-.79-2.24-.94-4.04-2.67-5.1-4.83-.55-1.97-1.58-3.79-3.04-5.31-1.52-1.58-3.38-2.7-5.39-3.31-1.2-.38-2.46-.58-3.75-.58-1.41,0-2.8.24-4.15.71-6.37,2.23-9.79,9.11-7.82,15.5.34,2.45-.23,4.95-1.63,7.01-1.57,2.3-4.02,3.84-6.77,4.25-.01,0-.03,0-.04,0-.19.03-.39.05-.58.09-.2.04-.4.1-.6.15-.01,0-.03,0-.04,0-3.01.77-5.59,2.59-7.32,5.2-1.24,1.86-1.92,3.97-2.06,6.15,0,0,0,0,0,.01-.02.38-.03.77-.02,1.16,0,.08,0,.15.01.23.02.32.04.64.08.96,0,.05,0,.1.01.14.01.09.04.19.05.28.03.16.04.32.07.48.02.09.04.17.06.26.03.12.06.23.09.35.06.25.13.49.21.73.04.12.08.24.12.36.08.23.17.46.26.68.05.12.1.24.16.35.1.22.2.43.32.64.06.12.13.23.19.35.12.2.24.4.36.59.07.11.15.23.23.34.13.18.26.36.4.54.09.11.18.23.27.34.14.16.28.32.42.48.11.12.21.23.32.34.14.14.28.27.42.4.13.12.26.24.4.35.13.11.26.21.39.31.16.12.32.25.49.37.11.08.22.15.34.22.2.13.39.26.6.37.08.05.17.09.25.14.24.13.48.26.73.38.04.02.08.04.12.05,1.58.72,3.32,1.13,5.14,1.13.21,0,.42-.01.63-.02.03,0,.06,0,.07,0,2.67,0,5.23,1.06,7.11,2.97,1.96,1.98,3,4.69,2.88,7.47-.02.37-.02.74,0,1.1.29,6.73,5.79,12,12.52,12,.18,0,.37,0,.55-.01,6.91-.3,12.28-6.16,11.99-13.06-.29-6.73-5.79-12-12.52-12-.13,0-.6.01-.7.01-2.67,0-5.24-1.07-7.12-2.98-1.95-1.98-2.99-4.68-2.87-7.46,0-.04,0-.09,0-.14.01-.4,0-.81-.02-1.22,0-.12-.02-.25-.03-.37-.02-.17-.02-.34-.04-.52-.03-.22-.08-.44-.12-.66,0-.04,0-.09-.02-.13,0-.03-.02-.06-.02-.09-.01-.06-.02-.13-.04-.19-.62-2.71-.09-5.56,1.48-7.86,1.56-2.3,4.01-3.85,6.76-4.26,1.33-.2,2.58-.63,3.74-1.22,1.15-.44,2.36-.67,3.57-.67,1.32,0,2.65.26,3.89.79,2.56,1.08,4.56,3.18,5.51,5.8,1.79,4.93,6.52,8.24,11.76,8.24.75,0,1.51-.07,2.26-.21,3.29-.6,6.16-2.45,8.06-5.2s2.62-6.08,2.02-9.38Z"/>
      <text class="cls-1" transform="translate(81.23 69.57)"><tspan x="0" y="0">Quantum</tspan></text>
      <circle class="cls-2" cx="63.33" cy="56.6" r="10.87"/>
    </g>
  </g>
</svg>